<?xml version="1.0" standalone="no"?>
<!DOCTYPE svg PUBLIC "-//W3C//DTD SVG 20010904//EN"
 "http://www.w3.org/TR/2001/REC-SVG-20010904/DTD/svg10.dtd">
<svg version="1.0" xmlns="http://www.w3.org/2000/svg"
 width="512.000000pt" height="512.000000pt" viewBox="0 0 512.000000 512.000000"
 preserveAspectRatio="xMidYMid meet">

<g transform="translate(0.000000,512.000000) scale(0.100000,-0.100000)"
fill="#000000" stroke="none">
<path d="M4215 5108 c-48 -18 -105 -61 -180 -137 l-70 -71 468 -468 467 -467
79 79 c107 107 136 160 136 251 0 47 -7 83 -19 110 -26 55 -637 665 -691 690
-47 22 -148 29 -190 13z"/>
<path d="M2004 2938 c-1689 -1691 -1803 -1806 -1817 -1853 -27 -86 -187 -789
-187 -822 0 -91 72 -202 157 -239 76 -34 149 -24 547 70 203 48 385 94 405
102 25 10 592 571 1834 1812 988 988 1797 1801 1797 1807 0 13 -352 365 -365
365 -6 0 -802 -792 -1771 -1761 -1865 -1865 -1777 -1781 -1857 -1771 -36 4
-95 63 -99 99 -10 80 -94 -8 1774 1860 l1763 1763 -185 185 c-102 102 -187
185 -190 185 -3 0 -816 -811 -1806 -1802z"/>
<path d="M1620 220 l0 -130 1720 0 1720 0 0 130 0 130 -1720 0 -1720 0 0 -130z"/>
</g>
</svg>
